<?xml version="1.0" encoding="iso-8859-1"?>
<!-- Generator: Adobe Illustrator 19.0.0, SVG Export Plug-In . SVG Version: 6.00 Build 0)  -->
<svg version="1.1" id="Layer_1" xmlns="http://www.w3.org/2000/svg" xmlns:xlink="http://www.w3.org/1999/xlink" x="0px" y="0px"
	 viewBox="0 0 484.161 484.161" style="enable-background:new 0 0 484.161 484.161;" xml:space="preserve">
<g>
	<g id="XMLID_45_">
		<g>
			<rect x="187.179" y="416.769" style="fill:#546A79;" width="109.804" height="59.893"/>
			<rect x="207.144" y="7.5" style="fill:#E7ECED;" width="69.875" height="59.893"/>
			<polygon style="fill:#E7ECED;" points="296.983,416.769 187.179,416.769 187.179,476.662 132.277,476.662 132.277,386.823 
				187.179,386.823 296.983,386.823 351.885,386.823 351.885,476.662 296.983,476.662 			"/>
			<polygon style="fill:#8F969A;" points="137.268,306.965 346.894,306.965 321.939,356.876 296.983,356.876 187.179,356.876 
				162.224,356.876 			"/>
			<polygon style="fill:#8F969A;" points="321.939,97.339 346.894,147.25 137.268,147.25 162.224,97.339 			"/>
			<rect x="187.179" y="356.876" style="fill:#AFB6BB;" width="109.804" height="29.947"/>
			<polygon style="fill:#AFB6BB;" points="296.983,67.393 296.983,97.339 187.179,97.339 187.179,67.393 207.144,67.393 
				277.019,67.393 			"/>
			<path style="fill:#AFB6BB;" d="M386.823,277.018v19.964c0,5.49-4.492,9.982-9.982,9.982h-29.947H137.268h-29.947
				c-5.49,0-9.982-4.492-9.982-9.982v-19.964c0-5.49,4.492-9.982,9.982-9.982H376.84
				C382.331,267.036,386.823,271.528,386.823,277.018z"/>
			<path style="fill:#AFB6BB;" d="M371.849,157.232v19.964c0,5.49-4.492,9.982-9.982,9.982H122.295c-5.49,0-9.982-4.492-9.982-9.982
				v-19.964c0-5.49,4.492-9.982,9.982-9.982h14.973h209.626h14.973C367.358,147.25,371.849,151.742,371.849,157.232z"/>
		</g>
		<g>
			<path d="M122.295,194.679h239.572c9.64,0,17.482-7.842,17.482-17.481v-19.965c0-9.64-7.842-17.482-17.482-17.482h-10.338
				L326.575,89.84h-22.092V59.893h-19.964V15h52.393V0H147.25v15h52.393v44.893h-19.964v29.946h-22.09l-24.957,49.911h-10.337
				c-9.64,0-17.482,7.843-17.482,17.482v19.965C104.813,186.837,112.656,194.679,122.295,194.679z M269.519,15v44.893h-54.876V15
				H269.519z M194.679,74.893h94.804v14.946h-94.804V74.893z M166.859,104.839h27.794v22.447h15v-22.447h24.929v22.447h15v-22.447
				h24.929v22.447h15v-22.447h27.793l17.456,34.911H149.404L166.859,104.839z M119.813,157.232c0-1.346,1.137-2.482,2.482-2.482
				h239.572c1.345,0,2.482,1.137,2.482,2.482v19.965c0,1.345-1.137,2.481-2.482,2.481H122.295c-1.346,0-2.482-1.137-2.482-2.481
				C119.813,177.197,119.813,157.232,119.813,157.232z"/>
			<rect x="227.108" y="29.946" width="29.946" height="15"/>
			<path d="M376.84,259.536H107.322c-9.64,0-17.482,7.843-17.482,17.482v19.964c0,9.64,7.843,17.482,17.482,17.482h25.311
				l24.957,49.911h22.09v14.946h-54.902v89.84H97.339v15h289.483v-15h-27.438v-89.84h-54.902v-14.946h22.092l24.954-49.911h25.311
				c9.64,0,17.482-7.843,17.482-17.482v-19.964C394.323,267.379,386.48,259.536,376.84,259.536z M289.483,469.162h-94.804v-44.894
				h94.804V469.162z M344.385,469.162h-39.902v-59.894H179.679v59.894h-39.902v-74.84h204.608V469.162z M194.679,379.322v-14.946
				h94.804v14.946H194.679z M317.303,349.376H289.51V326.93h-15v22.446h-24.929V326.93h-15v22.446h-24.929V326.93h-15v22.446
				h-27.794l-17.455-34.911h185.355L317.303,349.376z M379.323,296.982c0,1.346-1.137,2.482-2.482,2.482H107.322
				c-1.346,0-2.482-1.137-2.482-2.482v-19.964c0-1.346,1.137-2.482,2.482-2.482H376.84c1.346,0,2.482,1.137,2.482,2.482v19.964
				H379.323z"/>
			<rect x="227.108" y="439.216" width="29.946" height="15"/>
		</g>
	</g>
</g>
<g>
</g>
<g>
</g>
<g>
</g>
<g>
</g>
<g>
</g>
<g>
</g>
<g>
</g>
<g>
</g>
<g>
</g>
<g>
</g>
<g>
</g>
<g>
</g>
<g>
</g>
<g>
</g>
<g>
</g>
</svg>
